<?xml version="1.0" encoding="utf-8"?>
<svg height="396px" width="396px" viewBox="0 0 1500 1500" xmlns="http://www.w3.org/2000/svg" style="height: 100%; width: 100%; background: rgb(255, 255, 255); shape-rendering: auto;"><g class="ldl-scale" style="transform-origin: 50% 50%; transform: rotate(0deg) scale(0.97, 0.97);"><g class="ldl-ani" style="transform-origin: 750px 750px;"><g class="ldl-layer"><g class="ldl-ani" style="transform-origin: 750px 750px; transform: translate(0px, 0px); animation: 1.11111s linear -0.611111s infinite normal forwards running bounceAlt-005caa09-c23a-463b-a3ca-1e91ec84f570;"><g transform="translate(87.0 160.0) rotate(-166.72200368484607 656.0 547.5) scale(2.1025641025641026 2.1017274472168905)"><svg viewBox="0 0 624 521" height="521" width="624"><clipPath id="a"><path d="M0 0h623.3v520.4H0z" style=""></path></clipPath><g class="ldl-layer"><g class="ldl-ani"><g clip-path="url(#a)"><g class="ldl-layer"><g class="ldl-ani" style="transform-origin: 750px 750px;"><path fill="#fece2f" d="M1 333.1C-13.8 197.5 139.1 47.9 295.1 10.8 426.7-20.4 608.7 8 622.7 202c9.8 136-88.6 250.9-240.4 303C230.2 557.9 15.7 468.6 1 333.1z" style="fill: rgb(254, 206, 47);"></path></g></g></g></g></g></svg></g></g></g><g class="ldl-layer"><g class="ldl-ani" style="transform-origin: 750px 750px; transform: translate(0px, 0px); animation: 1.11111s linear -0.666667s infinite normal forwards running bounceAlt-005caa09-c23a-463b-a3ca-1e91ec84f570;"><g transform="translate(154.0 342.0) rotate(-9.132257115994184 637.0 531.5) scale(2.0416666666666665 2.0403071017274472)"><svg viewBox="0 0 624 521" height="521" width="624"><clipPath id="b"><path d="M0 0h623.3v520.4H0z" style=""></path></clipPath><g class="ldl-layer"><g class="ldl-ani"><g clip-path="url(#b)"><g class="ldl-layer"><g class="ldl-ani" style="transform-origin: 750px 750px;"><path fill="#fece2f" d="M1 333.1C-13.8 197.5 139.1 47.9 295.1 10.8 426.7-20.4 608.7 8 622.7 202c9.8 136-88.6 250.9-240.4 303C230.2 557.9 15.7 468.6 1 333.1z" style="fill: rgb(254, 206, 47);"></path></g></g></g></g></g></svg></g></g></g><g class="ldl-layer"><g class="ldl-ani" style="transform-origin: 750px 750px; transform: translate(0px, 0px); animation: 1.11111s linear -0.722222s infinite normal forwards running bounceAlt-005caa09-c23a-463b-a3ca-1e91ec84f570;"><g transform="translate(976.0 325.0) rotate(0.0 228.0 435.5) scale(2.605714285714286 2.6077844311377247)"><svg viewBox="0 0 175 334" height="334" width="175"><clipPath id="c"><path d="M0 0h174.1v334H0z" style=""></path></clipPath><g class="ldl-layer"><g class="ldl-ani"><g clip-path="url(#c)"><g class="ldl-layer"><g class="ldl-ani" style="transform-origin: 750px 750px;"><path fill="#1a1a1a" d="M41.6 1h90.9c22.4 0 40.6 18.2 40.6 40.6v250.8c0 22.4-18.2 40.6-40.6 40.6H41.6C19.2 333 1 314.8 1 292.4V41.6C1 19.2 19.2 1 41.6 1z" style="fill: rgb(26, 26, 26);"></path></g></g><g class="ldl-layer"><g class="ldl-ani" style="transform-origin: 750px 750px;"><path fill="#1a1a1a" d="M132.5 334H41.6C18.6 334 0 315.4 0 292.4V41.6C0 18.6 18.6 0 41.6 0h90.9c23 0 41.6 18.6 41.6 41.6v250.8c0 23-18.7 41.6-41.6 41.6zM41.6 2C19.7 2 2 19.7 2 41.6v250.8C2 314.2 19.7 332 41.6 332h90.9c21.9 0 39.6-17.7 39.6-39.6V41.6C172 19.7 154.3 2 132.5 2z" style="fill: rgb(26, 26, 26);"></path></g></g><g class="ldl-layer"><g class="ldl-ani" style="transform-origin: 750px 750px;"><path fill="#fece2f" d="M162.6 31H11.4v253.6h151.2z" style="fill: rgb(254, 206, 47);"></path></g></g><g class="ldl-layer"><g class="ldl-ani" style="transform-origin: 750px 750px;"><path fill="#fff" d="M11.4 284.6h15.9L143.7 31h-38.2L11.4 235.8zM83.1 31H70.3L11.4 159.3v27.8z" style="fill: rgb(255, 255, 255);"></path></g></g><g class="ldl-layer"><g class="ldl-ani" style="transform-origin: 750px 750px;"><path fill="#fece2f" d="M67.5 14.8h39.1c1.5 0 2.7 1.2 2.7 2.7s-1.2 2.7-2.7 2.7H67.5c-1.5 0-2.7-1.2-2.7-2.7s1.2-2.7 2.7-2.7z" style="fill: rgb(254, 206, 47);"></path></g></g><g class="ldl-layer"><g class="ldl-ani"><g fill="#1a1a1a"><g class="ldl-layer"><g class="ldl-ani" style="transform-origin: 750px 750px;"><path d="M106.6 21.1H67.5c-2 0-3.7-1.6-3.7-3.7s1.6-3.7 3.7-3.7h39.1c2 0 3.7 1.6 3.7 3.7s-1.7 3.7-3.7 3.7zm-39.1-5.3c-.9 0-1.7.8-1.7 1.7s.8 1.7 1.7 1.7h39.1c.9 0 1.7-.8 1.7-1.7s-.8-1.7-1.7-1.7zM46.2 86.2h-6.1c-6.8 0-12.2-5.5-12.2-12.2v-6.1c0-6.8 5.5-12.2 12.2-12.2h6.1c6.7 0 12.2 5.5 12.2 12.2V74c0 6.7-5.4 12.1-12.2 12.2zm-6.1-28.6c-5.6 0-10.2 4.6-10.2 10.2v6.1c0 5.6 4.6 10.2 10.2 10.2h6.1c5.6 0 10.2-4.6 10.2-10.2v-6.1c0-5.6-4.6-10.2-10.2-10.2zm51.2 28.6h-6.1C78.4 86.2 73 80.7 73 74v-6.1c0-6.8 5.5-12.2 12.2-12.2h6.1c6.7 0 12.2 5.5 12.2 12.2V74c0 6.7-5.5 12.1-12.2 12.2zm-6.2-28.6c-5.7 0-10.2 4.6-10.2 10.2v6.1c0 5.7 4.6 10.2 10.2 10.2h6.1c5.6 0 10.2-4.6 10.2-10.2v-6.1c0-5.6-4.6-10.2-10.2-10.2zm51.2 28.6h-6.1c-6.7 0-12.2-5.5-12.2-12.2v-6.1c0-6.7 5.5-12.2 12.2-12.2h6.1c6.8 0 12.2 5.5 12.2 12.2V74c0 6.7-5.5 12.2-12.2 12.2zm-6.1-28.6c-5.6 0-10.2 4.6-10.2 10.2v6.1c0 5.6 4.6 10.2 10.2 10.2h6.1c5.7 0 10.2-4.6 10.2-10.2v-6.1c0-5.7-4.6-10.2-10.2-10.2zm-84 71.099h-6.1c-6.8 0-12.2-5.5-12.2-12.2v-6.1c0-6.8 5.5-12.2 12.2-12.2h6.1c6.8 0 12.2 5.5 12.2 12.2v6.1c.1 6.7-5.4 12.2-12.2 12.2zm-6.1-28.6c-5.6 0-10.2 4.6-10.2 10.2v6.1c0 5.6 4.6 10.2 10.2 10.2h6.1c5.6 0 10.2-4.6 10.2-10.2v-6.1c0-5.6-4.6-10.2-10.2-10.2zm51.2 28.6h-6.1c-6.8 0-12.2-5.5-12.2-12.2v-6.1c0-6.8 5.5-12.2 12.2-12.2h6.1c6.8 0 12.2 5.5 12.2 12.2v6.1c0 6.7-5.5 12.2-12.2 12.2zm-6.2-28.6c-5.7 0-10.2 4.6-10.2 10.2v6.1c0 5.7 4.6 10.2 10.2 10.2h6.1c5.6 0 10.2-4.6 10.2-10.2v-6.1c0-5.6-4.6-10.2-10.2-10.2zm51.2 28.6h-6.1c-6.8 0-12.2-5.5-12.2-12.2v-6.1c0-6.8 5.5-12.2 12.2-12.2h6.1c6.8 0 12.2 5.5 12.2 12.2v6.1c0 6.7-5.5 12.2-12.2 12.2zm-6.1-28.6c-5.6 0-10.2 4.6-10.2 10.2v6.1c0 5.6 4.6 10.2 10.2 10.2h6.1c5.7 0 10.2-4.6 10.2-10.2v-6.1c0-5.7-4.6-10.2-10.2-10.2zm-84 71.1h-6.1c-6.7 0-12.2-5.5-12.2-12.2v-6.1c0-6.8 5.5-12.2 12.2-12.2h6.1c6.8 0 12.2 5.5 12.2 12.2v6.1c0 6.7-5.4 12.2-12.2 12.2zm-6.1-28.6c-5.7 0-10.2 4.6-10.2 10.2v6.1c0 5.6 4.6 10.2 10.2 10.2h6.1c5.6 0 10.2-4.6 10.2-10.2v-6.1c0-5.7-4.6-10.2-10.2-10.2zm51.2 28.6h-6.1c-6.7 0-12.2-5.5-12.2-12.2v-6.1c0-6.8 5.5-12.2 12.2-12.2h6.1c6.8 0 12.2 5.5 12.2 12.2v6.1c0 6.7-5.5 12.2-12.2 12.2zm-6.2-28.6c-5.7 0-10.2 4.6-10.2 10.2v6.1c0 5.7 4.6 10.2 10.2 10.2h6.1c5.6 0 10.2-4.6 10.2-10.2v-6.1c0-5.7-4.6-10.2-10.2-10.2zm51.2 28.6h-6.1c-6.7 0-12.2-5.5-12.2-12.2v-6.1c0-6.8 5.5-12.2 12.2-12.2h6.1c6.8 0 12.2 5.5 12.2 12.2v6.1c0 6.7-5.5 12.2-12.2 12.2zm-6.1-28.6c-5.7 0-10.2 4.6-10.2 10.2v6.1c0 5.6 4.6 10.2 10.2 10.2h6.1c5.7 0 10.2-4.6 10.2-10.2v-6.1c0-5.7-4.6-10.2-10.2-10.2zm-84 69.6h-6.1c-6.8 0-12.2-5.5-12.2-12.2v-6.1c0-6.8 5.5-12.2 12.2-12.2h6.1c6.7 0 12.2 5.5 12.2 12.2v6.1c.1 6.8-5.4 12.2-12.2 12.2zm-6.1-28.5c-5.6 0-10.2 4.6-10.2 10.2v6.1c0 5.7 4.6 10.2 10.2 10.2h6.1c5.7 0 10.2-4.6 10.2-10.2v-6.1c0-5.6-4.6-10.2-10.2-10.2zm51.2 28.5h-6.1c-6.8 0-12.2-5.5-12.2-12.2v-6.1c0-6.8 5.5-12.2 12.2-12.2h6.1c6.7 0 12.2 5.5 12.2 12.2v6.1c0 6.8-5.5 12.2-12.2 12.2zm-6.2-28.5c-5.7 0-10.2 4.6-10.2 10.2v6.1c0 5.7 4.6 10.2 10.2 10.2h6.1c5.7 0 10.2-4.6 10.2-10.2v-6.1c0-5.6-4.6-10.2-10.2-10.2zm51.2 28.5h-6.1c-6.8 0-12.2-5.5-12.2-12.2v-6.1c0-6.7 5.5-12.2 12.2-12.2h6.1c6.8 0 12.2 5.5 12.2 12.2v6.1c0 6.8-5.5 12.2-12.2 12.2zm-6.1-28.5c-5.6 0-10.2 4.6-10.2 10.2v6.1c0 5.7 4.6 10.2 10.2 10.2h6.1c5.7 0 10.2-4.6 10.2-10.2v-6.1c0-5.7-4.6-10.2-10.2-10.2z" style="fill: rgb(26, 26, 26);"></path></g></g></g></g></g><g class="ldl-layer"><g class="ldl-ani" style="transform-origin: 750px 750px;"><path fill="#fece2f" d="M87 318.399c-6.3 0-11.3-5.1-11.3-11.4s5.1-11.3 11.4-11.3 11.3 5.1 11.3 11.4-5.1 11.3-11.4 11.3zm0-20.7c-5.2 0-9.4 4.2-9.4 9.4s4.2 9.4 9.4 9.4 9.4-4.2 9.4-9.4-4.2-9.4-9.4-9.4z" style="fill: rgb(254, 206, 47);"></path></g></g><g class="ldl-layer"><g class="ldl-ani" style="transform-origin: 750px 750px;"><path fill="#1a1a1a" d="M162.6 285.6H11.4c-.6 0-1-.4-1-1V31c0-.6.4-1 1-1h151.2c.6 0 1 .4 1 1v253.6c0 .5-.4 1-1 1zm-150.2-2h149.2V32H12.4z" style="fill: rgb(26, 26, 26);"></path></g></g></g></g></g></svg></g></g></g><g class="ldl-layer"><g class="ldl-ani" style="transform-origin: 750px 750px; transform: translate(0px, 0px); animation: 1.11111s linear -0.777778s infinite normal forwards running bounceAlt-005caa09-c23a-463b-a3ca-1e91ec84f570;"><g transform="translate(858.0 528.0) rotate(89.99999999999987 342.5 196.5) translate(25.0 0.0) scale(3.8700564971751414 3.8529411764705883)"><svg viewBox="6.46 0 170.282 102" height="102" width="170.282"><clipPath id="d"><path d="M0 0h176.5v101.5H0z" style=""></path></clipPath><g class="ldl-layer"><g class="ldl-ani"><g clip-path="url(#d)"><g class="ldl-layer"><g class="ldl-ani" style="transform-origin: 750px 750px;"><path fill="#fece2f" d="M176.5 0H0v101.5h176.5z" style="fill: rgb(254, 206, 47);"></path></g></g></g></g></g></svg></g></g></g><g class="ldl-layer"><g class="ldl-ani" style="transform-origin: 750px 750px; transform: translate(0px, 0px); animation: 1.11111s linear -0.833333s infinite normal forwards running bounceAlt-005caa09-c23a-463b-a3ca-1e91ec84f570;"><g transform="translate(67.0 326.0) rotate(0.0 227.5 433.5) scale(2.6 2.595808383233533)"><svg viewBox="0 0 175 334" height="334" width="175"><clipPath id="e"><path d="M0 0h174.1v334H0z" style=""></path></clipPath><g class="ldl-layer"><g class="ldl-ani"><g clip-path="url(#e)"><g class="ldl-layer"><g class="ldl-ani" style="transform-origin: 750px 750px;"><path fill="#1a1a1a" d="M41.6 1h90.9c22.4 0 40.6 18.2 40.6 40.6v250.8c0 22.4-18.2 40.6-40.6 40.6H41.6C19.2 333 1 314.8 1 292.4V41.6C1 19.2 19.2 1 41.6 1z" style="fill: rgb(26, 26, 26);"></path></g></g><g class="ldl-layer"><g class="ldl-ani" style="transform-origin: 750px 750px;"><path fill="#1a1a1a" d="M132.5 334H41.6C18.6 334 0 315.4 0 292.4V41.6C0 18.6 18.6 0 41.6 0h90.9c23 0 41.6 18.6 41.6 41.6v250.8c0 23-18.7 41.6-41.6 41.6zM41.6 2C19.7 2 2 19.7 2 41.6v250.8C2 314.2 19.7 332 41.6 332h90.9c21.9 0 39.6-17.7 39.6-39.6V41.6C172 19.7 154.3 2 132.5 2z" style="fill: rgb(26, 26, 26);"></path></g></g><g class="ldl-layer"><g class="ldl-ani" style="transform-origin: 750px 750px;"><path fill="#fece2f" d="M162.6 31H11.4v253.6h151.2z" style="fill: rgb(254, 206, 47);"></path></g></g><g class="ldl-layer"><g class="ldl-ani" style="transform-origin: 750px 750px;"><path fill="#fff" d="M11.4 284.6h15.9L143.7 31h-38.2L11.4 235.8zM83.1 31H70.3L11.4 159.3v27.8z" style="fill: rgb(255, 255, 255);"></path></g></g><g class="ldl-layer"><g class="ldl-ani" style="transform-origin: 750px 750px;"><path fill="#fece2f" d="M67.5 14.8h39.1c1.5 0 2.7 1.2 2.7 2.7s-1.2 2.7-2.7 2.7H67.5c-1.5 0-2.7-1.2-2.7-2.7s1.2-2.7 2.7-2.7z" style="fill: rgb(254, 206, 47);"></path></g></g><g class="ldl-layer"><g class="ldl-ani"><g fill="#1a1a1a"><g class="ldl-layer"><g class="ldl-ani" style="transform-origin: 750px 750px;"><path d="M106.6 21.1H67.5c-2 0-3.7-1.6-3.7-3.7s1.6-3.7 3.7-3.7h39.1c2 0 3.7 1.6 3.7 3.7s-1.7 3.7-3.7 3.7zm-39.1-5.3c-.9 0-1.7.8-1.7 1.7s.8 1.7 1.7 1.7h39.1c.9 0 1.7-.8 1.7-1.7s-.8-1.7-1.7-1.7zM46.2 86.2h-6.1c-6.8 0-12.2-5.5-12.2-12.2v-6.1c0-6.8 5.5-12.2 12.2-12.2h6.1c6.7 0 12.2 5.5 12.2 12.2V74c0 6.7-5.4 12.1-12.2 12.2zm-6.1-28.6c-5.6 0-10.2 4.6-10.2 10.2v6.1c0 5.6 4.6 10.2 10.2 10.2h6.1c5.6 0 10.2-4.6 10.2-10.2v-6.1c0-5.6-4.6-10.2-10.2-10.2zm51.2 28.6h-6.1C78.4 86.2 73 80.7 73 74v-6.1c0-6.8 5.5-12.2 12.2-12.2h6.1c6.7 0 12.2 5.5 12.2 12.2V74c0 6.7-5.5 12.1-12.2 12.2zm-6.2-28.6c-5.7 0-10.2 4.6-10.2 10.2v6.1c0 5.7 4.6 10.2 10.2 10.2h6.1c5.6 0 10.2-4.6 10.2-10.2v-6.1c0-5.6-4.6-10.2-10.2-10.2zm51.2 28.6h-6.1c-6.7 0-12.2-5.5-12.2-12.2v-6.1c0-6.7 5.5-12.2 12.2-12.2h6.1c6.8 0 12.2 5.5 12.2 12.2V74c0 6.7-5.5 12.2-12.2 12.2zm-6.1-28.6c-5.6 0-10.2 4.6-10.2 10.2v6.1c0 5.6 4.6 10.2 10.2 10.2h6.1c5.7 0 10.2-4.6 10.2-10.2v-6.1c0-5.7-4.6-10.2-10.2-10.2zm-84 71.099h-6.1c-6.8 0-12.2-5.5-12.2-12.2v-6.1c0-6.8 5.5-12.2 12.2-12.2h6.1c6.8 0 12.2 5.5 12.2 12.2v6.1c.1 6.7-5.4 12.2-12.2 12.2zm-6.1-28.6c-5.6 0-10.2 4.6-10.2 10.2v6.1c0 5.6 4.6 10.2 10.2 10.2h6.1c5.6 0 10.2-4.6 10.2-10.2v-6.1c0-5.6-4.6-10.2-10.2-10.2zm51.2 28.6h-6.1c-6.8 0-12.2-5.5-12.2-12.2v-6.1c0-6.8 5.5-12.2 12.2-12.2h6.1c6.8 0 12.2 5.5 12.2 12.2v6.1c0 6.7-5.5 12.2-12.2 12.2zm-6.2-28.6c-5.7 0-10.2 4.6-10.2 10.2v6.1c0 5.7 4.6 10.2 10.2 10.2h6.1c5.6 0 10.2-4.6 10.2-10.2v-6.1c0-5.6-4.6-10.2-10.2-10.2zm51.2 28.6h-6.1c-6.8 0-12.2-5.5-12.2-12.2v-6.1c0-6.8 5.5-12.2 12.2-12.2h6.1c6.8 0 12.2 5.5 12.2 12.2v6.1c0 6.7-5.5 12.2-12.2 12.2zm-6.1-28.6c-5.6 0-10.2 4.6-10.2 10.2v6.1c0 5.6 4.6 10.2 10.2 10.2h6.1c5.7 0 10.2-4.6 10.2-10.2v-6.1c0-5.7-4.6-10.2-10.2-10.2zm-84 71.1h-6.1c-6.7 0-12.2-5.5-12.2-12.2v-6.1c0-6.8 5.5-12.2 12.2-12.2h6.1c6.8 0 12.2 5.5 12.2 12.2v6.1c0 6.7-5.4 12.2-12.2 12.2zm-6.1-28.6c-5.7 0-10.2 4.6-10.2 10.2v6.1c0 5.6 4.6 10.2 10.2 10.2h6.1c5.6 0 10.2-4.6 10.2-10.2v-6.1c0-5.7-4.6-10.2-10.2-10.2zm51.2 28.6h-6.1c-6.7 0-12.2-5.5-12.2-12.2v-6.1c0-6.8 5.5-12.2 12.2-12.2h6.1c6.8 0 12.2 5.5 12.2 12.2v6.1c0 6.7-5.5 12.2-12.2 12.2zm-6.2-28.6c-5.7 0-10.2 4.6-10.2 10.2v6.1c0 5.7 4.6 10.2 10.2 10.2h6.1c5.6 0 10.2-4.6 10.2-10.2v-6.1c0-5.7-4.6-10.2-10.2-10.2zm51.2 28.6h-6.1c-6.7 0-12.2-5.5-12.2-12.2v-6.1c0-6.8 5.5-12.2 12.2-12.2h6.1c6.8 0 12.2 5.5 12.2 12.2v6.1c0 6.7-5.5 12.2-12.2 12.2zm-6.1-28.6c-5.7 0-10.2 4.6-10.2 10.2v6.1c0 5.6 4.6 10.2 10.2 10.2h6.1c5.7 0 10.2-4.6 10.2-10.2v-6.1c0-5.7-4.6-10.2-10.2-10.2zm-84 69.6h-6.1c-6.8 0-12.2-5.5-12.2-12.2v-6.1c0-6.8 5.5-12.2 12.2-12.2h6.1c6.7 0 12.2 5.5 12.2 12.2v6.1c.1 6.8-5.4 12.2-12.2 12.2zm-6.1-28.5c-5.6 0-10.2 4.6-10.2 10.2v6.1c0 5.7 4.6 10.2 10.2 10.2h6.1c5.7 0 10.2-4.6 10.2-10.2v-6.1c0-5.6-4.6-10.2-10.2-10.2zm51.2 28.5h-6.1c-6.8 0-12.2-5.5-12.2-12.2v-6.1c0-6.8 5.5-12.2 12.2-12.2h6.1c6.7 0 12.2 5.5 12.2 12.2v6.1c0 6.8-5.5 12.2-12.2 12.2zm-6.2-28.5c-5.7 0-10.2 4.6-10.2 10.2v6.1c0 5.7 4.6 10.2 10.2 10.2h6.1c5.7 0 10.2-4.6 10.2-10.2v-6.1c0-5.6-4.6-10.2-10.2-10.2zm51.2 28.5h-6.1c-6.8 0-12.2-5.5-12.2-12.2v-6.1c0-6.7 5.5-12.2 12.2-12.2h6.1c6.8 0 12.2 5.5 12.2 12.2v6.1c0 6.8-5.5 12.2-12.2 12.2zm-6.1-28.5c-5.6 0-10.2 4.6-10.2 10.2v6.1c0 5.7 4.6 10.2 10.2 10.2h6.1c5.7 0 10.2-4.6 10.2-10.2v-6.1c0-5.7-4.6-10.2-10.2-10.2z" style="fill: rgb(26, 26, 26);"></path></g></g></g></g></g><g class="ldl-layer"><g class="ldl-ani" style="transform-origin: 750px 750px;"><path fill="#fece2f" d="M87 318.399c-6.3 0-11.3-5.1-11.3-11.4s5.1-11.3 11.4-11.3 11.3 5.1 11.3 11.4-5.1 11.3-11.4 11.3zm0-20.7c-5.2 0-9.4 4.2-9.4 9.4s4.2 9.4 9.4 9.4 9.4-4.2 9.4-9.4-4.2-9.4-9.4-9.4z" style="fill: rgb(254, 206, 47);"></path></g></g><g class="ldl-layer"><g class="ldl-ani" style="transform-origin: 750px 750px;"><path fill="#1a1a1a" d="M162.6 285.6H11.4c-.6 0-1-.4-1-1V31c0-.6.4-1 1-1h151.2c.6 0 1 .4 1 1v253.6c0 .5-.4 1-1 1zm-150.2-2h149.2V32H12.4z" style="fill: rgb(26, 26, 26);"></path></g></g></g></g></g></svg></g></g></g><g class="ldl-layer"><g class="ldl-ani" style="transform-origin: 750px 750px; transform: translate(0px, 0px); animation: 1.11111s linear -0.888889s infinite normal forwards running bounceAlt-005caa09-c23a-463b-a3ca-1e91ec84f570;"><g transform="translate(-50.0 529.0) rotate(89.99999999999987 340.5 195.5) translate(25.0 0.0) scale(3.847457627118644 3.8333333333333335)"><svg viewBox="6.498 0 170.242 101.739" height="101.739" width="170.242"><clipPath id="f"><path d="M0 0h176.5v101.5H0z" style=""></path></clipPath><g class="ldl-layer"><g class="ldl-ani"><g clip-path="url(#f)"><g class="ldl-layer"><g class="ldl-ani" style="transform-origin: 750px 750px;"><path fill="#FFF" d="M176.5 0H0v101.5h176.5z" style="fill: rgb(255, 255, 255);"></path></g></g></g></g></g></svg></g></g></g><g class="ldl-layer"><g class="ldl-ani" style="transform-origin: 750px 750px; transform: translate(0px, 0px); animation: 1.11111s linear -0.944444s infinite normal forwards running bounceAlt-005caa09-c23a-463b-a3ca-1e91ec84f570;"><g transform="translate(14.0 463.0) rotate(0.0 734.0 403.0) translate(83.0 0.0) scale(1.6402234636871509 1.6382113821138211)"><svg viewBox="50.603 0 802.939 491.39" height="491.39" width="802.939"><clipPath id="g"><path d="M0 0h894.577v491.584H0z" style=""></path></clipPath><g class="ldl-layer"><g class="ldl-ani"><g clip-path="url(#g)"><g class="ldl-layer"><g class="ldl-ani" style="transform-origin: 750px 750px;"><path fill="#fece2f" d="M262.039 332.344s-27.074 24.79-33.589 46.075c-6.514 21.286 17.269 43.733 39.193 22.002s36.367-35.534 36.367-35.534z" style="fill: rgb(254, 206, 47);"></path></g></g><g class="ldl-layer"><g class="ldl-ani" style="transform-origin: 750px 750px;"><path fill="#fff" d="M249.556 345.82s-14.117 30.705-11.647 42.352c2.471 11.647-2.823 15.176-2.823 15.176s-12.568-8.655-6.353-26.823c4.588-13.411 20.823-30.705 20.823-30.705z" style="fill: rgb(255, 255, 255);"></path></g></g><g class="ldl-layer"><g class="ldl-ani" style="transform-origin: 750px 750px;"><path fill="#1a1a1a" d="M248.893 410.294c-3.724 0-7.366-1.006-10.756-3.054-9.562-5.776-14.038-18.02-10.643-29.113 6.519-21.301 32.755-45.5 33.868-46.52a.998.998 0 0 1 1.288-.053l41.972 32.543a1 1 0 0 1 .079 1.512c-.145.139-14.688 14.048-36.354 35.521-6.096 6.045-12.899 9.164-19.454 9.164zm13.207-76.637c-4.051 3.834-26.877 26.048-32.693 45.056-3.131 10.229.976 21.507 9.765 26.815 8.523 5.148 18.901 2.973 27.768-5.816 18.736-18.57 32.151-31.489 35.543-34.744z" style="fill: rgb(26, 26, 26);"></path></g></g><g class="ldl-layer"><g class="ldl-ani" style="transform-origin: 750px 750px;"><path fill="#fece2f" d="M705.239 86.832s-29.703 15.987-79.806 28.873c-47.899 12.32-39.845 7.845-182.037 65.105 0 0-45.303 41.062-76.925 66.612L529.06 429.82c65.048-42.517 124.101-93.493 145.149-118.924 32.609-39.4 94.671-65.884 94.671-65.884z" style="fill: rgb(254, 206, 47);"></path></g></g><g class="ldl-layer"><g class="ldl-ani" style="transform-origin: 750px 750px;"><path fill="#1a1a1a" d="M529.06 430.82a.997.997 0 0 1-.746-.335l-162.59-182.397a1 1 0 0 1 .117-1.443c31.239-25.239 76.431-66.164 76.883-66.575.088-.079.188-.143.298-.187 127.714-51.431 134.019-53.016 169.007-61.811 3.947-.992 8.259-2.076 13.155-3.336 49.391-12.702 79.284-28.626 79.581-28.785a1.002 1.002 0 0 1 1.401.507l63.642 158.18a1 1 0 0 1-.535 1.293c-.618.264-62.218 26.846-94.294 65.603-21.363 25.812-81.581 77.427-145.372 119.123a.993.993 0 0 1-.547.163zM367.915 247.54l161.318 180.972c63.364-41.509 123.018-92.652 144.205-118.253 30.255-36.555 86.378-62.318 94.153-65.773L704.723 88.227c-5.582 2.851-34.406 16.968-79.04 28.447-4.9 1.26-9.216 2.345-13.166 3.338-34.86 8.764-41.152 10.345-168.581 61.66-2.721 2.462-45.622 41.234-76.021 65.868z" style="fill: rgb(26, 26, 26);"></path></g></g><g class="ldl-layer"><g class="ldl-ani" style="transform-origin: 750px 750px;"><path fill="#fece2f" d="M126.213 245.011s62.061 26.484 94.671 65.884 156.432 140.12 252.455 175.692c35.93 15.333 54.625-17.618 52.37-28.619 22.784 7.145 43.643-14 40.431-40.855 26.823 8.47 45.381-13.65 37.508-38.633 30.256 11.809 40.673 15.145 56.731 17.259 22.936 3.02 52.704-30.637 17.995-49.92-38.117-21.176-102.95-65.875-127.783-81.878s-98.894-83.132-98.894-83.132l45.359-39.334s-31.653-23.547-64.221-35.901c-32.568-12.354-123.351 17.965-171.503 5.581-50.102-12.886-71.477-24.325-71.477-24.325z" style="fill: rgb(254, 206, 47);"></path></g></g><g class="ldl-layer"><g class="ldl-ani" style="transform-origin: 750px 750px;"><path fill="#fff" d="M644.314 326.056s-29.647-6.353-40.764-13.765-28.058-30.176-47.117-33.353c-19.059-3.176-48.705-20.647-59.293-34.411s-22.235-43.941-22.235-43.941 60.352 52.941 72.529 59.293c12.176 6.354 96.88 66.177 96.88 66.177zM249.908 109s19.059 21.176 62.47 16.941c45.622-4.451 88.94-22.764 127.587-16.412-14.823-11.118-38.647-7.412-56.646-4.765-18 2.647-80.999 12.706-105.881 8.47C252.555 109 249.908 109 249.908 109z" style="fill: rgb(255, 255, 255);"></path></g></g><g class="ldl-layer"><g class="ldl-ani" style="transform-origin: 750px 750px;"><path fill="#fece2f" d="M525.708 457.967c-30.549-8.556-71.715-32.649-71.715-32.649z" style="fill: rgb(254, 206, 47);"></path></g></g><g class="ldl-layer"><g class="ldl-ani" style="transform-origin: 750px 750px;"><path fill="#1a1a1a" d="M525.709 458.967c-.09 0-.181-.012-.271-.037-30.321-8.492-71.538-32.507-71.95-32.748a1 1 0 1 1 1.01-1.726c.411.24 41.408 24.127 71.48 32.549a.998.998 0 0 1-.269 1.962z" style="fill: rgb(26, 26, 26);"></path></g></g><g class="ldl-layer"><g class="ldl-ani" style="transform-origin: 750px 750px;"><path fill="#1a1a1a" d="M491.318 491.543c-5.865 0-12.052-1.339-18.372-4.036-94.363-34.956-219.097-135.213-252.834-175.974-32.076-38.757-93.674-65.339-94.292-65.603a1 1 0 0 1-.535-1.293l63.641-158.18a.994.994 0 0 1 .586-.566.99.99 0 0 1 .813.058c.213.114 21.884 11.54 71.255 24.238 24.616 6.334 59.982 1.481 94.184-3.209 31.573-4.33 61.394-8.419 77.425-2.338 32.324 12.261 64.146 35.796 64.463 36.032a1 1 0 0 1 .058 1.559l-44.506 38.594c8.25 7.45 74.863 67.413 97.928 82.275 6.551 4.223 15.917 10.462 26.762 17.686 30.778 20.504 72.93 48.583 100.965 64.159 13.449 7.471 18.993 18.323 15.211 29.773-4.384 13.275-20.495 23.771-33.822 22.012-16.148-2.126-27.072-5.682-55.079-16.585 3.129 11.983.409 23.971-7.3 31.675-7.597 7.594-18.677 9.993-30.58 6.677 1.217 13.838-3.717 26.74-13.357 34.746-7.727 6.415-17.508 8.599-27.054 6.101.301 6.551-4.563 17.202-13.219 24.271-6.451 5.268-14.077 7.928-22.341 7.928zM127.502 244.484c7.775 3.455 63.896 29.219 94.151 65.773 33.619 40.618 157.933 140.531 252.033 175.392 18.641 7.954 31.332 2.438 38.707-3.584 9.506-7.764 13.327-19.059 12.335-23.897a1 1 0 0 1 1.279-1.155c9.345 2.929 19.057.994 26.646-5.309 9.465-7.859 14.136-20.747 12.493-34.473a1.001 1.001 0 0 1 1.293-1.073c11.717 3.698 22.654 1.603 30.015-5.753 7.717-7.712 10.05-19.535 6.239-31.626a1.001 1.001 0 0 1 1.317-1.232c29.238 11.412 40.2 15.055 56.498 17.2 12.447 1.632 27.549-8.206 31.662-20.656 2.028-6.142 2.87-17.869-14.283-27.398-28.106-15.614-70.297-43.721-101.103-64.242-10.838-7.22-20.198-13.455-26.737-17.669-24.617-15.864-98.283-82.56-99.024-83.231a1 1 0 0 1 .017-1.497l44.41-38.51c-5.651-4.076-34.128-24.093-62.971-35.034-15.554-5.897-45.13-1.843-76.444 2.45-34.394 4.718-69.957 9.594-94.953 3.165-43.775-11.26-65.933-21.555-70.707-23.91z" style="fill: rgb(26, 26, 26);"></path></g></g><g class="ldl-layer"><g class="ldl-ani" style="transform-origin: 750px 750px;"><path fill="#fece2f" d="M485.67 386.76s67.058 26.823 80.47 30.353z" style="fill: rgb(254, 206, 47);"></path></g></g><g class="ldl-layer"><g class="ldl-ani" style="transform-origin: 750px 750px;"><path fill="#1a1a1a" d="M566.141 418.112c-.085 0-.17-.011-.256-.033-13.317-3.505-77.845-29.295-80.585-30.391a1 1 0 0 1 .742-1.858c.67.269 67.153 26.841 80.353 30.314a1 1 0 0 1-.254 1.968z" style="fill: rgb(26, 26, 26);"></path></g></g><g class="ldl-layer"><g class="ldl-ani" style="transform-origin: 750px 750px;"><path fill="#fece2f" d="M520.258 340.877s67.957 30.028 83.39 37.602z" style="fill: rgb(254, 206, 47);"></path></g></g><g class="ldl-layer"><g class="ldl-ani" style="transform-origin: 750px 750px;"><path fill="#1a1a1a" d="M603.647 379.48a.974.974 0 0 1-.439-.103c-15.238-7.479-82.675-37.284-83.354-37.584a1.002 1.002 0 0 1-.511-1.319 1.004 1.004 0 0 1 1.319-.511c.68.301 68.153 30.122 83.427 37.619a1 1 0 0 1-.442 1.898z" style="fill: rgb(26, 26, 26);"></path></g></g><g class="ldl-layer"><g class="ldl-ani" style="transform-origin: 750px 750px;"><path fill="#fece2f" d="M677.05 99.469s-66.44 27.529-111.616 14.117c-33.703-10.006-59.999-7.765-90.352-2.118-25.846 4.809-93.881 21.353-108.175 35.647s-51.415 39.88-61.411 44.999c-28.941 14.823 0 82.587 98.469 11.647 28.588-9.529 68.293-7.941 68.293-7.941s76.234 84.705 150.792 33.882c82.26-56.071 54-130.233 54-130.233zM294.289 383.231s-8.382 17.47-4.235 32.823c4.528 16.765 20.206 22.235 39.176 13.765 24.247-10.827 19.037-50.19 2.206-61.411-22.235-14.823-37.147 14.823-37.147 14.823z" style="fill: rgb(254, 206, 47);"></path></g></g><g class="ldl-layer"><g class="ldl-ani" style="transform-origin: 750px 750px;"><path fill="#fff" d="M340.172 378.732s-9.265-9.794-22.5-7.676c-10.314 1.65-19.588 7.676-25.411 17.735 9.529-20.117 16.412-22.5 21.706-23.823 5.294-1.325 18.794-1.325 26.205 13.764z" style="fill: rgb(255, 255, 255);"></path></g></g><g class="ldl-layer"><g class="ldl-ani" style="transform-origin: 750px 750px;"><path fill="#1a1a1a" d="M312.6 434.742c-3.986 0-7.676-.768-10.925-2.311-6.18-2.937-10.532-8.509-12.587-16.116-4.195-15.532 3.95-32.789 4.299-33.517l.008-.017c.318-.632 7.929-15.51 20.627-18.866 5.929-1.567 11.976-.336 17.969 3.66 9.718 6.479 15.862 21.973 14.609 36.842-1.058 12.557-7.081 21.902-16.962 26.314-5.971 2.668-11.764 4.011-17.038 4.011zm-17.414-51.069c-.227.48-8.129 17.453-4.166 32.121 1.897 7.025 5.879 12.153 11.514 14.831 7.011 3.331 16.348 2.72 26.289-1.719 12.394-5.534 15.209-17.823 15.785-24.656 1.175-13.958-4.726-29.01-13.727-35.01-5.494-3.662-10.991-4.804-16.341-3.393-11.709 3.091-19.14 17.408-19.354 17.826z" style="fill: rgb(26, 26, 26);"></path></g></g><g class="ldl-layer"><g class="ldl-ani" style="transform-origin: 750px 750px;"><path fill="#fece2f" d="M390.641 458.406s-50.823 24.353-57.176-20.117 21.264-43.411 30.794-40.235c9.529 3.176 24.265 22.235 26.382 60.352z" style="fill: rgb(254, 206, 47);"></path></g></g><g class="ldl-layer"><g class="ldl-ani" style="transform-origin: 750px 750px;"><path fill="#fff" d="M375.113 409.172c-11.382-10.323-32.558-7.412-39.176 3.176 2.117-12.441 8.735-14.029 16.941-15.088s15.882-1.588 22.235 11.912z" style="fill: rgb(255, 255, 255);"></path></g></g><g class="ldl-layer"><g class="ldl-ani" style="transform-origin: 750px 750px;"><path fill="#1a1a1a" d="M362.669 466.087c-5.37 0-10.806-.938-15.614-3.509-7.996-4.275-12.9-12.4-14.579-24.148-2.613-18.296.143-30.979 8.191-37.696 7.839-6.542 18.717-5.36 23.908-3.628 9.69 3.23 24.896 22.207 27.064 61.245a1 1 0 0 1-.566.957c-.78.375-14.368 6.779-28.404 6.779zm-7.032-68.353c-4.482 0-9.561 1.09-13.688 4.534-7.48 6.244-10.002 18.315-7.492 35.878 1.583 11.081 6.137 18.706 13.537 22.665 15.06 8.057 37.636-1.271 41.61-3.032-2.238-37.317-16.892-55.854-25.661-58.777-2.034-.678-5.01-1.268-8.306-1.268z" style="fill: rgb(26, 26, 26);"></path></g></g><g class="ldl-layer"><g class="ldl-ani" style="transform-origin: 750px 750px;"><path fill="#fece2f" d="M452.141 477.995s-13.853 17.47-48.793 10.059-26.346-39.881-24.353-48.705c5.382-23.823 41.294-22.235 50.823 25.411 11.647 9.529 22.323 13.235 22.323 13.235z" style="fill: rgb(254, 206, 47);"></path></g></g><g class="ldl-layer"><g class="ldl-ani" style="transform-origin: 750px 750px;"><path fill="#fff" d="M418.524 437.231c-4.235-6.882-26.206-24.882-39.177-.265 5.824-5.029 19.06-10.853 39.177.265z" style="fill: rgb(255, 255, 255);"></path></g></g><g class="ldl-layer"><g class="ldl-ani" style="transform-origin: 750px 750px;"><path fill="#1a1a1a" d="M517.216 338.402c7.371 1.576 17.149 6.718 27.884 14.207-9.638-2.388-21.583-4.705-32.242-4.127s-12.338-13.144 4.358-10.08zm-26.825 46.941c7.371 1.576 17.149 6.718 27.884 14.207-9.638-2.388-21.583-4.705-32.242-4.127s-12.337-13.144 4.358-10.08z" style="fill: rgb(26, 26, 26);"></path></g></g><g class="ldl-layer"><g class="ldl-ani" style="transform-origin: 750px 750px;"><path fill="#fff" d="M643.785 110.587s-19.059 18-42.352 18.529-63.794-9.146-77.646-8.823c-22.764.529-81.48 8.309-124.41 25.941-29.647 12.176-51.977 29.871-59.999 35.823-16.412 12.176-40.764 21.176-40.764 21.176s-3.176-5.294 10.059-12.706 48.176-32.294 53.999-39.705c5.823-7.412 36-19.588 36-19.588s89.999-24.882 113.822-24.882 45.529 2.647 59.293 6.882c13.763 4.235 25.94 11.117 71.998-2.647z" style="fill: rgb(255, 255, 255);"></path></g></g><g class="ldl-layer"><g class="ldl-ani"><g fill="#1a1a1a"><g class="ldl-layer"><g class="ldl-ani" style="transform-origin: 750px 750px;"><path d="M446.583 421.083c7.453 1.126 17.902 7.857 29.071 14.681-9.765-1.799-21.66-3.034-32.248-4.887-10.515-1.84-7.941-13.235 3.177-9.794zm139.439-161.25c-36.512 0-76.11-21.33-117.897-63.55-3.995-.072-37.233-.401-63.699 8.379-21.682 15.604-41.531 25.618-58.999 29.766-14.505 3.443-27.181 2.7-36.654-2.149-9.224-4.723-14.954-13.397-14.954-22.639-.001-7.932 4.193-14.815 11.221-18.414 9.385-4.807 46.653-30.311 61.16-44.817 14.542-14.542 83.386-30.859 108.686-35.92 33.484-6.695 60.645-6.059 90.811 2.134 59.358 16.119 138.759-26.307 139.554-26.738a.999.999 0 1 1 .953 1.758c-.674.365-57.295 30.618-111.031 30.621-10.243.001-20.373-1.098-29.999-3.712-29.852-8.105-56.736-8.735-89.895-2.103-25.135 5.027-93.473 21.183-107.664 35.373-14.624 14.624-52.199 40.336-61.662 45.183-6.346 3.251-10.134 9.469-10.133 16.635 0 8.487 5.313 16.479 13.865 20.858 9.749 4.99 38.391 12.296 93.696-27.548.082-.059.173-.105.269-.137 28.428-9.477 64.571-8.525 64.933-8.521.257.008.501.114.683.297 45.427 45.991 88.13 67.073 126.906 62.673 43.635-4.955 66.654-41.479 66.881-41.849a1 1 0 0 1 1.703 1.05c-.232.377-23.725 37.704-68.33 42.783a91.83 91.83 0 0 1-10.404.587z" style="fill: rgb(26, 26, 26);"></path></g></g><g class="ldl-layer"><g class="ldl-ani" style="transform-origin: 750px 750px;"><path d="M472.259 197.939s22.764 22.764 39.705 23.823 31.235.529 35.47 9c4.235 8.47 25.411 16.764 45.529 7.765 17.208-7.698 42.882 4.941 55.058-5.647-18.529 20.117-58.764 34.411-95.293 19.588s-59.822-29.647-80.469-54.529z" style="fill: rgb(26, 26, 26);"></path></g></g><g class="ldl-layer"><g class="ldl-ani" style="transform-origin: 750px 750px;"><path d="M512.228 233.145s16.553-6.979 4.5-10.853c-29.647-9.529-27.602-21.732-27.794-27-.434-11.935-7.147-23.47-17.735-17.117s-25.764 15.529-38.823 15.882-19.059-1.412-21.882-6-8.823-10.235-20.117 7.765-29.294 30-44.47 31.411-40.941 2.823-50.47-20.117c-.353 32.117 34.27 28.873 51.176 25.764 30.706-5.647 59.999-29.646 59.999-29.646 25.067-5.673 46.255-9.153 60.705-8.824zm145.586-7.147s4.484-4.528 7.941-10.323c9-15.088-8.47-19.588-11.382-7.676s-4.235 28.853-20.382 31.5 3.706 3.441 3.706 3.441zm101.735 23.471s-39.881 15.882-51.175 16.588-25.764.353-37.411-8.118c-11.647-8.47-14.117-2.471-8.47 5.647s11.647 17.647 8.118 26.823-11.294 16.235-23.294 16.235c-17.423 0-26.823-7.765-30.706-15.176s-3.882-12.706-18-12.706c-14.117 0-47.294-15.176-30.706-20.823-24.353-13.765-50.823-20.117-50.823-20.117s10.242 9.275 27.882 21.882c34.129 24.392 89.873 61.633 110.116 70.94 10.844-8.235 42.705-51.529 104.469-81.175zm-328.32 215.82s.794 30.97-46.323 13.235c11.647 13.5 36.794 12.176 41.823 11.118 5.029-1.059 21.706-6.353 25.411-11.647-8.205-3.176-20.911-12.706-20.911-12.706zm-50.557-30.353s-19.411 40.058-44.294 12.882c7.765 19.764 25.411 17.294 25.411 17.294l15.176-1.765c.001 0-1.764-19.588 3.707-28.411zm-42.529-30.352s-30.353 40.411-48.088 11.47c7.147 21.882 25.676 18.176 29.735 17.117s13.235-4.412 13.235-4.412-.353-16.41 5.118-24.175zm-81.352-58.412s26.206 29.911 17.47 46.588c7.941-6.618 17.47-16.941 17.47-16.941zm226.056 94.234s34.235 19.411 33.882 36.352c5.647-4.588 9.265-7.5 8.206-18.088-8.471-3.529-42.088-18.264-42.088-18.264zm41.999-37.058s37.764 18.353 37.764 33.176c7.412-8.47 2.118-20.117 2.118-20.117zm34.941-44.469s41.999 24.353 43.411 41.999c2.823-10.235 3.176-19.764-.706-24.353-9.882-3.529-42.705-17.646-42.705-17.646zm59.87 14.051a1.001 1.001 0 0 1-.664-1.749c.13-.114 12.939-11.658 13.456-28.13a1.007 1.007 0 0 1 1.03-.969c.552.018.985.479.969 1.031-.544 17.354-13.575 29.075-14.13 29.565a.988.988 0 0 1-.661.252zm-8.83-6.737a1 1 0 0 1-.664-1.748c.091-.081 9.082-8.189 9.443-19.738a1 1 0 0 1 1.998.062c-.389 12.431-9.719 20.821-10.116 21.173a.993.993 0 0 1-.661.251zm24.398 7.56a1 1 0 0 1-.664-1.748c.091-.081 9.082-8.19 9.444-19.739.018-.553.479-1.027 1.03-.968a1 1 0 0 1 .968 1.03c-.39 12.431-9.72 20.822-10.117 21.174a.995.995 0 0 1-.661.251z" style="fill: rgb(26, 26, 26);"></path></g></g><g class="ldl-layer"><g class="ldl-ani" style="transform-origin: 750px 750px;"><path d="M314.828 213.126c-8.549 0-15.053-3.842-18.531-11.233a1.001 1.001 0 0 1 1.81-.852c6.371 13.538 21.775 10.144 28.102 8.057 11.327-3.737 20.494-11.612 19.776-15.199-1.644-8.217-17.961-15.442-18.125-15.515a1 1 0 0 1-.516-1.316.996.996 0 0 1 1.316-.516c.712.311 17.439 7.726 19.285 16.954 1.131 5.651-10.213 13.896-21.11 17.491-4.323 1.427-8.353 2.129-12.007 2.129zm79.784-55.834a1 1 0 0 1-.916-.596c-6.453-14.604-19.67-13.424-19.807-13.411a1.01 1.01 0 0 1-1.097-.894 1.002 1.002 0 0 1 .894-1.097c.14-.015 14.806-1.327 21.84 14.592a1 1 0 0 1-.914 1.406zm-15.528-2.117a.995.995 0 0 1-.772-.364c-4.528-5.497-13.148-4.592-13.233-4.584-.555.071-1.044-.332-1.106-.88s.33-1.043.879-1.106c.395-.047 9.778-1.048 15.004 5.299a.998.998 0 0 1-.772 1.635zm40.764 282.055s7.941 20.117 10.059 27.529c9 8.47 28.588 17.206 56.646 24.882-34.941-20.118-59.294-42.353-66.705-52.411zm-83.118-65.646s16.412 12.176 23.294 24.882c-8.47 1.059-14.823 1.588-14.823 1.588s.529-14.294-8.471-26.47zm37.059 33.352s10.588 16.412 11.647 22.235c6.353-1.588 10.588-3.176 10.588-3.176s-8.47-10.588-22.235-19.059zM138.733 250.35s43.411 14.823 66.705 7.941c21.707-6.413 2.118 24.353 26.47 45.529 9.36 8.139 18.529 32.294 19.588 39.176-17.47-14.823-34.37-38.372-53.47-53.999-17.47-14.295-59.293-38.647-59.293-38.647zm178.915 154.345c-4.886 0-11.048-1.493-15.56-6.786-3.807-4.465-3.748-11.149-2.49-14.471.771-2.036 1.837-2.591 2.595-2.698.651-.098 1.626.07 2.611 1.341.688.632 8.174 7.274 19.58 8.361 5.736.546 7.14 2.739 7.307 4.483.35 3.649-4.796 7.987-8.304 9.019-1.427.421-3.443.751-5.739.751zm-15.157-21.976-.018.002c-.197.027-.627.431-1.005 1.426-1.052 2.779-1.1 8.663 2.142 12.466 5.967 6.999 15.176 6.602 19.213 5.414 3.029-.892 7.098-4.615 6.878-6.909-.182-1.896-3.527-2.496-5.506-2.685-12.639-1.203-20.5-8.641-20.828-8.957a.937.937 0 0 1-.106-.121c-.378-.504-.653-.636-.77-.636zm50.1 48.181c-4.886 0-11.05-1.493-15.562-6.786-3.46-4.057-3.962-9.851-2.678-13.242.554-1.46 1.435-2.347 2.481-2.495.667-.099 1.677.074 2.719 1.394.964.683 8.536 5.807 19.773 6.877 5.736.546 7.14 2.739 7.307 4.483.35 3.65-4.796 7.988-8.304 9.02-1.427.418-3.44.749-5.736.749zm-15.45-20.545a.213.213 0 0 0-.027.002c-.156.022-.544.307-.891 1.224-.927 2.445-.816 7.548 2.328 11.236 5.968 6.998 15.177 6.602 19.213 5.415 3.029-.892 7.098-4.615 6.878-6.91-.182-1.896-3.527-2.496-5.506-2.685-12.572-1.197-20.554-7.092-20.888-7.342a.993.993 0 0 1-.199-.2c-.388-.517-.729-.74-.908-.74zm59.656 48.869c-4.887 0-11.05-1.493-15.563-6.786-3.807-4.465-3.747-11.149-2.489-14.47.771-2.036 1.836-2.591 2.594-2.698.646-.093 1.624.067 2.612 1.341.688.632 8.173 7.273 19.58 8.36 5.736.546 7.14 2.739 7.307 4.483.35 3.65-4.796 7.988-8.304 9.02-1.428.42-3.442.75-5.737.75zm-15.159-21.976-.019.001c-.197.028-.627.432-1.004 1.427-1.053 2.779-1.101 8.663 2.141 12.465 5.967 6.998 15.177 6.602 19.214 5.415 3.029-.892 7.097-4.615 6.877-6.91-.182-1.896-3.527-2.496-5.505-2.685-12.64-1.203-20.5-8.641-20.828-8.956a.937.937 0 0 1-.106-.121c-.38-.504-.653-.636-.77-.636zm91.688-79.885c-.091 0-.184-.013-.275-.039-.799-.229-19.669-5.74-27.594-17.563a1.001 1.001 0 0 1 1.662-1.114c7.514 11.211 26.294 16.7 26.482 16.755a.999.999 0 0 1-.275 1.961zm45.529-52.058c-.091 0-.184-.013-.275-.039-.799-.229-19.668-5.741-27.594-17.564a1.001 1.001 0 0 1 1.662-1.114c7.515 11.211 26.294 16.701 26.482 16.756a1 1 0 0 1-.275 1.961zm-80.293 94.938c-.091 0-.184-.013-.275-.039-.799-.229-19.668-5.74-27.594-17.563a1.001 1.001 0 0 1 1.662-1.113c7.515 11.211 26.294 16.699 26.482 16.754a1 1 0 0 1-.275 1.961z" style="fill: rgb(26, 26, 26);"></path></g></g></g></g></g><g class="ldl-layer"><g class="ldl-ani" style="transform-origin: 750px 750px;"><path fill="#fff" d="m645.814 102.647 98.47 189.527 64.587-26.47-82.587-193.763z" style="fill: rgb(255, 255, 255);"></path></g></g><g class="ldl-layer"><g class="ldl-ani" style="transform-origin: 750px 750px;"><path fill="#1a1a1a" d="M744.285 293.174a1 1 0 0 1-.888-.539l-98.47-189.527a1.002 1.002 0 0 1 .531-1.395l80.47-30.705a1.003 1.003 0 0 1 1.276.542l82.587 193.762a1.004 1.004 0 0 1-.541 1.318l-64.587 26.47a.998.998 0 0 1-.378.074zM647.22 103.181l97.531 187.722 62.804-25.74-81.813-191.944z" style="fill: rgb(26, 26, 26);"></path></g></g><g class="ldl-layer"><g class="ldl-ani" style="transform-origin: 750px 750px;"><path fill="#1a1a1a" d="m684.99 80.411 122.822 247.761 85.764-31.764L852.282 1z" style="fill: rgb(26, 26, 26);"></path></g></g><g class="ldl-layer"><g class="ldl-ani" style="transform-origin: 750px 750px;"><path fill="#1a1a1a" d="M807.813 329.171a1 1 0 0 1-.896-.556L684.096 80.855a.998.998 0 0 1 .467-1.347L851.854.096a1.001 1.001 0 0 1 1.419.764l41.294 295.408a.999.999 0 0 1-.643 1.076l-85.764 31.764a.972.972 0 0 1-.347.063zM686.339 80.877 808.31 326.921l84.166-31.172L851.481 2.486z" style="fill: rgb(26, 26, 26);"></path></g></g><g class="ldl-layer"><g class="ldl-ani" style="transform-origin: 750px 750px;"><path fill="#fff" d="m248.761 102.645-98.47 189.527-64.587-26.47L168.291 71.94z" style="fill: rgb(255, 255, 255);"></path></g></g><g class="ldl-layer"><g class="ldl-ani" style="transform-origin: 750px 750px;"><path fill="#1a1a1a" d="M150.291 293.172a.989.989 0 0 1-.379-.075l-64.587-26.47a1.004 1.004 0 0 1-.54-1.318L167.37 71.548c.21-.494.776-.73 1.276-.542l80.47 30.704a1 1 0 0 1 .531 1.395l-98.47 189.527a.997.997 0 0 1-.887.54zm-63.27-28.012 62.804 25.74 97.531-187.722-78.522-29.961z" style="fill: rgb(26, 26, 26);"></path></g></g><g class="ldl-layer"><g class="ldl-ani" style="transform-origin: 750px 750px;"><path fill="#fece2f" d="m42.294 1 167.292 79.411L86.764 328.172 1 296.408" style="fill: rgb(254, 206, 47);"></path></g></g><g class="ldl-layer"><g class="ldl-ani" style="transform-origin: 750px 750px;"><path fill="#1a1a1a" d="M86.764 329.172a.989.989 0 0 1-.348-.063L.652 297.346a1 1 0 0 1-.59-1.285.996.996 0 0 1 1.285-.59l84.92 31.451L208.238 80.878 41.865 1.903a1 1 0 1 1 .857-1.807l167.292 79.411a1.001 1.001 0 0 1 .467 1.347L87.659 328.616a1 1 0 0 1-.895.556zm333.178 161.734c-4.962 0-10.548-.548-16.802-1.874-10.543-2.236-18.174-6.953-22.683-14.02-7.855-12.312-4.195-28.233-2.633-35.032l.194-.853c2.182-9.653 9.476-15.85 18.621-15.85l.252.002c11.815.146 27.734 10.963 33.835 40.931 11.271 9.144 21.638 12.804 21.742 12.84a.996.996 0 0 1 .632.665.995.995 0 0 1-.177.9c-.476.604-10.063 12.291-32.981 12.291zm-23.31-65.628c-8.293 0-14.665 5.456-16.661 14.291l-.196.859c-1.507 6.554-5.035 21.903 2.37 33.509 4.209 6.597 11.412 11.017 21.41 13.138 28.87 6.125 43.167-5.13 46.835-8.682-3.311-1.343-11.902-5.249-21.204-12.859a1 1 0 0 1-.348-.578c-5.813-29.064-20.855-39.538-31.971-39.676a18.41 18.41 0 0 0-.235-.002zm93.362 65.686s12.97-2.647 13.5-11.647c.529-9 10.853-8.735 2.382-22.764-8.47-14.029 18.794 9.794 18.794 9.794s-5.294 24.353-34.676 24.617zm49.763-79.675c11.911 7.677 29.588 38.699-3.442 47.118 24.617 0 28.853-21.97 28.853-32.294s-25.411-14.824-25.411-14.824zm40.765-38.381c11.911 7.504 29.588 37.83-3.442 46.059 24.617 0 28.853-21.477 28.853-31.568s-25.411-14.491-25.411-14.491zm113.557-9s-5.823 20.382-29.647 21.706-39.441-2.382-54.264-4.765c20.117 8.47 51.882 20.911 68.029 10.588s15.882-20.117 15.882-27.529z" style="fill: rgb(26, 26, 26);"></path></g></g></g></g></g></svg></g></g></g><g class="ldl-layer"><g class="ldl-ani" style="transform-origin: 750px 750px; transform: translate(0px, 0px); animation: 1.11111s linear -1s infinite normal forwards running bounceAlt-005caa09-c23a-463b-a3ca-1e91ec84f570;"><g transform="translate(435.0 361.0) rotate(180.0 65.0 69.5) scale(0.7692307692307693 0.7679558011049724)"><svg viewBox="0 0 169 181" height="181" width="169"><clipPath id="h"><path d="M0 0h168.708v180.528H0z" style=""></path></clipPath><g class="ldl-layer"><g class="ldl-ani"><g clip-path="url(#h)"><g class="ldl-layer"><g class="ldl-ani" style="transform-origin: 750px 750px;"><path fill="#fece2f" d="M154.837 21.593a29.048 29.048 0 0 0-13.511-5.666c-2.808-3.293-7.845-4.6-11.283-7.264-22.131-17.094-66.247 2.906-98.6 44.7C-.91 95.157-9.231 142.9 12.9 160.044a75.394 75.394 0 0 0 22.567 10.992 27.94 27.94 0 0 0 2.227 1.937c22.13 17.1 66.247-2.905 98.6-44.7 32.345-41.837 40.626-89.585 18.543-106.68z" style="fill: rgb(254, 206, 47);"></path></g></g><g class="ldl-layer"><g class="ldl-ani" style="transform-origin: 750px 750px;"><path fill="#fff" d="M43.99 58.638c26.876-34.72 61.937-54.43 85.71-50.266-22.224-16.707-66.1 3.341-98.3 44.94C-.95 95.098-9.28 142.85 12.852 159.998a74.326 74.326 0 0 0 20.92 10.5 59.197 59.197 0 0 1-8.329-5.182C3.312 148.227 11.641 100.43 43.99 58.638z" style="fill: rgb(255, 255, 255);"></path></g></g><g class="ldl-layer"><g class="ldl-ani" style="transform-origin: 750px 750px;"><path fill="#fff" d="M110.818 21.205c-12.59 5.424-25.86 14.576-38.3 26.78l44.7 101.259a177.882 177.882 0 0 0 19.08-20.969 175.833 175.833 0 0 0 11.622-16.949zm-78.063 85.812 30.75 71.574c9.008-1.211 18.887-4.891 28.959-10.751L51.108 73.264a161.4 161.4 0 0 0-18.353 33.753z" style="fill: rgb(255, 255, 255);"></path></g></g><g class="ldl-layer"><g class="ldl-ani"><g fill="#1a1a1a"><g class="ldl-layer"><g class="ldl-ani" style="transform-origin: 750px 750px;"><path d="M57.162 180.528c-7.942 0-14.867-2.131-20.388-6.441-11.138-8.62-15.3-24.794-11.67-45.472 3.535-20.387 14.188-42.809 29.975-63.245s34.867-36.319 53.705-44.842c19.128-8.669 35.835-8.717 46.973-.1s15.3 24.794 11.671 45.472c-3.535 20.387-14.189 42.809-29.976 63.245-15.787 20.387-34.867 36.319-53.7 44.842-9.641 4.362-18.6 6.541-26.59 6.541zm78.111-163.627c-7.554 0-16.126 2.081-25.327 6.246-18.4 8.33-37.094 23.971-52.591 44.02C25.539 108.275 17.113 155.2 38.566 171.81s64.746-3.341 96.562-44.407c15.5-20.048 25.956-42.034 29.394-61.937 3.39-19.612-.338-34.77-10.6-42.663-5.041-3.97-11.337-5.904-18.649-5.904z" style="fill: rgb(26, 26, 26);"></path></g></g><g class="ldl-layer"><g class="ldl-ani" style="transform-origin: 750px 750px;"><path d="M62.1 166.485a21.712 21.712 0 0 1-13.51-4.213c-8.185-6.344-10.606-19.031-6.829-35.641 3.73-16.272 12.978-34.48 26-51.381 13.075-16.852 28.426-30.411 43.2-38.063 15.158-7.845 27.99-8.668 36.223-2.324s10.6 19.031 6.828 35.642c-3.729 16.271-12.978 34.479-26.005 51.38-13.075 16.852-28.426 30.411-43.2 38.063-8.42 4.31-16.12 6.537-22.707 6.537zm71.575-132.978c-6.1 0-13.366 2.082-21.356 6.247-14.43 7.506-29.443 20.726-42.228 37.24s-21.84 34.382-25.472 50.218c-3.535 15.448-1.5 27.07 5.763 32.687s19.031 4.7 33.075-2.615c14.431-7.506 29.443-20.726 42.228-37.24 12.784-16.561 21.84-34.382 25.472-50.217 3.535-15.448 1.5-27.071-5.763-32.688a18.586 18.586 0 0 0-11.719-3.632z" style="fill: rgb(26, 26, 26);"></path></g></g><g class="ldl-layer"><g class="ldl-ani" style="transform-origin: 750px 750px;"><path d="M146.314 35.975a5.922 5.922 0 0 0-.678-.485c9.2 15.836-.339 49.153-24.019 79.71-26.344 34.044-60.388 52.01-76.707 40.629a18.392 18.392 0 0 0 4.552 5.279c15.981 12.4 50.654-5.569 77.385-40.145s35.448-72.59 19.467-84.988z" style="fill: rgb(26, 26, 26);"></path></g></g><g class="ldl-layer"><g class="ldl-ani" style="transform-origin: 750px 750px;"><path d="M40.6 176.363a1.354 1.354 0 0 1-.726-.194l-31.38-17.481a1.145 1.145 0 0 1-.436-.388C-7.875 137.429.406 94.039 27.72 55.1c12.831-18.3 28.812-33.8 44.89-43.58 16.03-9.782 31.525-13.51 43.632-10.508a.67.67 0 0 1 .29.1L148.2 15.976a1.45 1.45 0 1 1-1.259 2.615L115.418 3.77C91.593-2.04 55.758 20.236 30.14 56.75 17.162 75.2 8.106 95.54 4.62 113.99c-3.39 17.87-1.4 32.882 5.617 42.276L41.375 173.6a1.486 1.486 0 0 1 .581 1.985 1.668 1.668 0 0 1-1.356.778z" style="fill: rgb(26, 26, 26);"></path></g></g><g class="ldl-layer"><g class="ldl-ani" style="transform-origin: 750px 750px;"><path d="M129.317 17.186a1.492 1.492 0 0 1-.63-.145l-13.123-6.247L100.6 3.772a1.446 1.446 0 0 1-.74-.828 1.45 1.45 0 0 1 1.999-1.787l14.964 7.022 13.123 6.247a1.446 1.446 0 0 1 .74.828 1.444 1.444 0 0 1-.062 1.11 1.515 1.515 0 0 1-1.307.822zM111.4 22.513a1.492 1.492 0 0 1-.63-.145l-13.026-6.1-14.965-7.023a1.452 1.452 0 0 1 1.259-2.616L99 13.651l13.027 6.1a1.45 1.45 0 0 1 .677 1.937 1.514 1.514 0 0 1-1.304.825zm-14.141 7.215a1.492 1.492 0 0 1-.63-.146L69.123 16.653a1.453 1.453 0 0 1 .15-2.677 1.452 1.452 0 0 1 1.109.062l27.506 12.93a1.452 1.452 0 0 1 .678 1.937 1.428 1.428 0 0 1-1.307.823zM86.508 37.09a1.49 1.49 0 0 1-.63-.146l-27.167-12.59a1.462 1.462 0 1 1 1.211-2.664L87.09 34.281a1.473 1.473 0 0 1-.58 2.81zm-11.816 9.442a1.676 1.676 0 0 1-.63-.146l-27.07-12.494A1.463 1.463 0 0 1 48.2 31.23l27.07 12.494a1.473 1.473 0 0 1-.58 2.81zm-9.443 8.718a1.492 1.492 0 0 1-.63-.145l-24.891-11.72a1.451 1.451 0 0 1 1.259-2.614l24.89 11.719a1.452 1.452 0 0 1 .679 1.937 1.377 1.377 0 0 1-1.307.823zM56.1 65.662a1.487 1.487 0 0 1-.63-.145L31.109 54.136a1.463 1.463 0 0 1 1.21-2.663l24.359 11.38a1.473 1.473 0 0 1-.581 2.809zm-6.832 9.975a1.486 1.486 0 0 1-.629-.146l-24.31-11.428a1.45 1.45 0 1 1 1.259-2.615L49.9 72.876a1.453 1.453 0 0 1 .678 1.937 1.515 1.515 0 0 1-1.31.824zm-5.762 10.217a1.494 1.494 0 0 1-.63-.146L17.985 74.086a1.466 1.466 0 0 1-.724-1.939 1.464 1.464 0 0 1 1.939-.724l24.887 11.622a1.473 1.473 0 0 1-.581 2.81zm-5.957 10.994a1.484 1.484 0 0 1-.63-.145L12.562 85.08a1.451 1.451 0 0 1 1.259-2.615L38.18 94.087a1.452 1.452 0 0 1 .678 1.937 1.38 1.38 0 0 1-1.308.823zm-4.697 10.894a1.479 1.479 0 0 1-.63-.145L7.864 95.975a1.451 1.451 0 1 1 1.26-2.615l24.357 11.622a1.46 1.46 0 0 1 .74.829 1.445 1.445 0 0 1-.062 1.108 1.422 1.422 0 0 1-1.307.823zm-3.777 10.752a1.494 1.494 0 0 1-.63-.145L4.522 106.968a1.459 1.459 0 0 1-.74-.829 1.446 1.446 0 0 1 .403-1.561 1.453 1.453 0 0 1 1.597-.225L29.7 115.734a1.455 1.455 0 0 1 .82 1.389c-.011.19-.06.376-.142.548a1.375 1.375 0 0 1-1.303.823zm-2.712 11.622a1.508 1.508 0 0 1-.63-.145L1.81 118.591a1.452 1.452 0 0 1 1.259-2.615l23.922 11.38a1.441 1.441 0 0 1 .74.828 1.448 1.448 0 0 1-.062 1.109 1.38 1.38 0 0 1-1.307.823zm-1.114 11.961a1.508 1.508 0 0 1-.63-.145L1.181 130.843a1.46 1.46 0 0 1-.74-.828 1.454 1.454 0 0 1 .89-1.85 1.452 1.452 0 0 1 1.109.063l23.438 11.089a1.441 1.441 0 0 1 .74.828 1.448 1.448 0 0 1-.062 1.109 1.427 1.427 0 0 1-1.307.823zm.436 10.074a1.493 1.493 0 0 1-.63-.145L1.617 140.384a1.453 1.453 0 0 1 1.259-2.616l23.438 11.623a1.442 1.442 0 0 1 .74.828 1.45 1.45 0 0 1-.062 1.109 1.427 1.427 0 0 1-1.307.823zm2.954 10.748a1.686 1.686 0 0 1-.678-.146l-23.584-11.96a1.43 1.43 0 0 1-.782-1.396 1.447 1.447 0 0 1 .5-.982 1.429 1.429 0 0 1 1.05-.34c.188.015.371.066.54.152l23.583 11.961a1.414 1.414 0 0 1 .793 1.396c-.017.19-.073.374-.163.541a1.35 1.35 0 0 1-1.26.774z" style="fill: rgb(26, 26, 26);"></path></g></g></g></g></g></g></g></g></svg></g></g></g><g class="ldl-layer"><g class="ldl-ani" style="transform-origin: 750px 750px; transform: translate(0px, 0px); animation: 1.11111s linear -1.05556s infinite normal forwards running bounceAlt-005caa09-c23a-463b-a3ca-1e91ec84f570;"><g transform="translate(597.0 204.0) rotate(-147.0556752051876 84.5 90.5) scale(1.0 1.0)"><svg viewBox="0 0 169 181" height="181" width="169"><clipPath id="i"><path d="M0 0h168.708v180.528H0z" style=""></path></clipPath><g class="ldl-layer"><g class="ldl-ani"><g clip-path="url(#i)"><g class="ldl-layer"><g class="ldl-ani" style="transform-origin: 750px 750px;"><path fill="#fece2f" d="M154.837 21.593a29.048 29.048 0 0 0-13.511-5.666c-2.808-3.293-7.845-4.6-11.283-7.264-22.131-17.094-66.247 2.906-98.6 44.7C-.91 95.157-9.231 142.9 12.9 160.044a75.394 75.394 0 0 0 22.567 10.992 27.94 27.94 0 0 0 2.227 1.937c22.13 17.1 66.247-2.905 98.6-44.7 32.345-41.837 40.626-89.585 18.543-106.68z" style="fill: rgb(254, 206, 47);"></path></g></g><g class="ldl-layer"><g class="ldl-ani" style="transform-origin: 750px 750px;"><path fill="#fff" d="M43.99 58.638c26.876-34.72 61.937-54.43 85.71-50.266-22.224-16.707-66.1 3.341-98.3 44.94C-.95 95.098-9.28 142.85 12.852 159.998a74.326 74.326 0 0 0 20.92 10.5 59.197 59.197 0 0 1-8.329-5.182C3.312 148.227 11.641 100.43 43.99 58.638z" style="fill: rgb(255, 255, 255);"></path></g></g><g class="ldl-layer"><g class="ldl-ani" style="transform-origin: 750px 750px;"><path fill="#fff" d="M110.818 21.205c-12.59 5.424-25.86 14.576-38.3 26.78l44.7 101.259a177.882 177.882 0 0 0 19.08-20.969 175.833 175.833 0 0 0 11.622-16.949zm-78.063 85.812 30.75 71.574c9.008-1.211 18.887-4.891 28.959-10.751L51.108 73.264a161.4 161.4 0 0 0-18.353 33.753z" style="fill: rgb(255, 255, 255);"></path></g></g><g class="ldl-layer"><g class="ldl-ani"><g fill="#1a1a1a"><g class="ldl-layer"><g class="ldl-ani" style="transform-origin: 750px 750px;"><path d="M57.162 180.528c-7.942 0-14.867-2.131-20.388-6.441-11.138-8.62-15.3-24.794-11.67-45.472 3.535-20.387 14.188-42.809 29.975-63.245s34.867-36.319 53.705-44.842c19.128-8.669 35.835-8.717 46.973-.1s15.3 24.794 11.671 45.472c-3.535 20.387-14.189 42.809-29.976 63.245-15.787 20.387-34.867 36.319-53.7 44.842-9.641 4.362-18.6 6.541-26.59 6.541zm78.111-163.627c-7.554 0-16.126 2.081-25.327 6.246-18.4 8.33-37.094 23.971-52.591 44.02C25.539 108.275 17.113 155.2 38.566 171.81s64.746-3.341 96.562-44.407c15.5-20.048 25.956-42.034 29.394-61.937 3.39-19.612-.338-34.77-10.6-42.663-5.041-3.97-11.337-5.904-18.649-5.904z" style="fill: rgb(26, 26, 26);"></path></g></g><g class="ldl-layer"><g class="ldl-ani" style="transform-origin: 750px 750px;"><path d="M62.1 166.485a21.712 21.712 0 0 1-13.51-4.213c-8.185-6.344-10.606-19.031-6.829-35.641 3.73-16.272 12.978-34.48 26-51.381 13.075-16.852 28.426-30.411 43.2-38.063 15.158-7.845 27.99-8.668 36.223-2.324s10.6 19.031 6.828 35.642c-3.729 16.271-12.978 34.479-26.005 51.38-13.075 16.852-28.426 30.411-43.2 38.063-8.42 4.31-16.12 6.537-22.707 6.537zm71.575-132.978c-6.1 0-13.366 2.082-21.356 6.247-14.43 7.506-29.443 20.726-42.228 37.24s-21.84 34.382-25.472 50.218c-3.535 15.448-1.5 27.07 5.763 32.687s19.031 4.7 33.075-2.615c14.431-7.506 29.443-20.726 42.228-37.24 12.784-16.561 21.84-34.382 25.472-50.217 3.535-15.448 1.5-27.071-5.763-32.688a18.586 18.586 0 0 0-11.719-3.632z" style="fill: rgb(26, 26, 26);"></path></g></g><g class="ldl-layer"><g class="ldl-ani" style="transform-origin: 750px 750px;"><path d="M146.314 35.975a5.922 5.922 0 0 0-.678-.485c9.2 15.836-.339 49.153-24.019 79.71-26.344 34.044-60.388 52.01-76.707 40.629a18.392 18.392 0 0 0 4.552 5.279c15.981 12.4 50.654-5.569 77.385-40.145s35.448-72.59 19.467-84.988z" style="fill: rgb(26, 26, 26);"></path></g></g><g class="ldl-layer"><g class="ldl-ani" style="transform-origin: 750px 750px;"><path d="M40.6 176.363a1.354 1.354 0 0 1-.726-.194l-31.38-17.481a1.145 1.145 0 0 1-.436-.388C-7.875 137.429.406 94.039 27.72 55.1c12.831-18.3 28.812-33.8 44.89-43.58 16.03-9.782 31.525-13.51 43.632-10.508a.67.67 0 0 1 .29.1L148.2 15.976a1.45 1.45 0 1 1-1.259 2.615L115.418 3.77C91.593-2.04 55.758 20.236 30.14 56.75 17.162 75.2 8.106 95.54 4.62 113.99c-3.39 17.87-1.4 32.882 5.617 42.276L41.375 173.6a1.486 1.486 0 0 1 .581 1.985 1.668 1.668 0 0 1-1.356.778z" style="fill: rgb(26, 26, 26);"></path></g></g><g class="ldl-layer"><g class="ldl-ani" style="transform-origin: 750px 750px;"><path d="M129.317 17.186a1.492 1.492 0 0 1-.63-.145l-13.123-6.247L100.6 3.772a1.446 1.446 0 0 1-.74-.828 1.45 1.45 0 0 1 1.999-1.787l14.964 7.022 13.123 6.247a1.446 1.446 0 0 1 .74.828 1.444 1.444 0 0 1-.062 1.11 1.515 1.515 0 0 1-1.307.822zM111.4 22.513a1.492 1.492 0 0 1-.63-.145l-13.026-6.1-14.965-7.023a1.452 1.452 0 0 1 1.259-2.616L99 13.651l13.027 6.1a1.45 1.45 0 0 1 .677 1.937 1.514 1.514 0 0 1-1.304.825zm-14.141 7.215a1.492 1.492 0 0 1-.63-.146L69.123 16.653a1.453 1.453 0 0 1 .15-2.677 1.452 1.452 0 0 1 1.109.062l27.506 12.93a1.452 1.452 0 0 1 .678 1.937 1.428 1.428 0 0 1-1.307.823zM86.508 37.09a1.49 1.49 0 0 1-.63-.146l-27.167-12.59a1.462 1.462 0 1 1 1.211-2.664L87.09 34.281a1.473 1.473 0 0 1-.58 2.81zm-11.816 9.442a1.676 1.676 0 0 1-.63-.146l-27.07-12.494A1.463 1.463 0 0 1 48.2 31.23l27.07 12.494a1.473 1.473 0 0 1-.58 2.81zm-9.443 8.718a1.492 1.492 0 0 1-.63-.145l-24.891-11.72a1.451 1.451 0 0 1 1.259-2.614l24.89 11.719a1.452 1.452 0 0 1 .679 1.937 1.377 1.377 0 0 1-1.307.823zM56.1 65.662a1.487 1.487 0 0 1-.63-.145L31.109 54.136a1.463 1.463 0 0 1 1.21-2.663l24.359 11.38a1.473 1.473 0 0 1-.581 2.809zm-6.832 9.975a1.486 1.486 0 0 1-.629-.146l-24.31-11.428a1.45 1.45 0 1 1 1.259-2.615L49.9 72.876a1.453 1.453 0 0 1 .678 1.937 1.515 1.515 0 0 1-1.31.824zm-5.762 10.217a1.494 1.494 0 0 1-.63-.146L17.985 74.086a1.466 1.466 0 0 1-.724-1.939 1.464 1.464 0 0 1 1.939-.724l24.887 11.622a1.473 1.473 0 0 1-.581 2.81zm-5.957 10.994a1.484 1.484 0 0 1-.63-.145L12.562 85.08a1.451 1.451 0 0 1 1.259-2.615L38.18 94.087a1.452 1.452 0 0 1 .678 1.937 1.38 1.38 0 0 1-1.308.823zm-4.697 10.894a1.479 1.479 0 0 1-.63-.145L7.864 95.975a1.451 1.451 0 1 1 1.26-2.615l24.357 11.622a1.46 1.46 0 0 1 .74.829 1.445 1.445 0 0 1-.062 1.108 1.422 1.422 0 0 1-1.307.823zm-3.777 10.752a1.494 1.494 0 0 1-.63-.145L4.522 106.968a1.459 1.459 0 0 1-.74-.829 1.446 1.446 0 0 1 .403-1.561 1.453 1.453 0 0 1 1.597-.225L29.7 115.734a1.455 1.455 0 0 1 .82 1.389c-.011.19-.06.376-.142.548a1.375 1.375 0 0 1-1.303.823zm-2.712 11.622a1.508 1.508 0 0 1-.63-.145L1.81 118.591a1.452 1.452 0 0 1 1.259-2.615l23.922 11.38a1.441 1.441 0 0 1 .74.828 1.448 1.448 0 0 1-.062 1.109 1.38 1.38 0 0 1-1.307.823zm-1.114 11.961a1.508 1.508 0 0 1-.63-.145L1.181 130.843a1.46 1.46 0 0 1-.74-.828 1.454 1.454 0 0 1 .89-1.85 1.452 1.452 0 0 1 1.109.063l23.438 11.089a1.441 1.441 0 0 1 .74.828 1.448 1.448 0 0 1-.062 1.109 1.427 1.427 0 0 1-1.307.823zm.436 10.074a1.493 1.493 0 0 1-.63-.145L1.617 140.384a1.453 1.453 0 0 1 1.259-2.616l23.438 11.623a1.442 1.442 0 0 1 .74.828 1.45 1.45 0 0 1-.062 1.109 1.427 1.427 0 0 1-1.307.823zm2.954 10.748a1.686 1.686 0 0 1-.678-.146l-23.584-11.96a1.43 1.43 0 0 1-.782-1.396 1.447 1.447 0 0 1 .5-.982 1.429 1.429 0 0 1 1.05-.34c.188.015.371.066.54.152l23.583 11.961a1.414 1.414 0 0 1 .793 1.396c-.017.19-.073.374-.163.541a1.35 1.35 0 0 1-1.26.774z" style="fill: rgb(26, 26, 26);"></path></g></g></g></g></g></g></g></g></svg></g></g></g><g class="ldl-layer"><g class="ldl-ani" style="transform-origin: 750px 750px; transform: translate(0px, 0px); animation: 1.11111s linear -1.11111s infinite normal forwards running bounceAlt-005caa09-c23a-463b-a3ca-1e91ec84f570;"><g transform="translate(921.0 314.0) rotate(-90.00000000000001 103.5 111.0) scale(1.2248520710059172 1.2265193370165746)"><svg viewBox="0 0 169 181" height="181" width="169"><clipPath id="j"><path d="M0 0h168.708v180.528H0z" style=""></path></clipPath><g class="ldl-layer"><g class="ldl-ani"><g clip-path="url(#j)"><g class="ldl-layer"><g class="ldl-ani" style="transform-origin: 750px 750px;"><path fill="#fece2f" d="M154.837 21.593a29.048 29.048 0 0 0-13.511-5.666c-2.808-3.293-7.845-4.6-11.283-7.264-22.131-17.094-66.247 2.906-98.6 44.7C-.91 95.157-9.231 142.9 12.9 160.044a75.394 75.394 0 0 0 22.567 10.992 27.94 27.94 0 0 0 2.227 1.937c22.13 17.1 66.247-2.905 98.6-44.7 32.345-41.837 40.626-89.585 18.543-106.68z" style="fill: rgb(254, 206, 47);"></path></g></g><g class="ldl-layer"><g class="ldl-ani" style="transform-origin: 750px 750px;"><path fill="#fff" d="M43.99 58.638c26.876-34.72 61.937-54.43 85.71-50.266-22.224-16.707-66.1 3.341-98.3 44.94C-.95 95.098-9.28 142.85 12.852 159.998a74.326 74.326 0 0 0 20.92 10.5 59.197 59.197 0 0 1-8.329-5.182C3.312 148.227 11.641 100.43 43.99 58.638z" style="fill: rgb(255, 255, 255);"></path></g></g><g class="ldl-layer"><g class="ldl-ani" style="transform-origin: 750px 750px;"><path fill="#fff" d="M110.818 21.205c-12.59 5.424-25.86 14.576-38.3 26.78l44.7 101.259a177.882 177.882 0 0 0 19.08-20.969 175.833 175.833 0 0 0 11.622-16.949zm-78.063 85.812 30.75 71.574c9.008-1.211 18.887-4.891 28.959-10.751L51.108 73.264a161.4 161.4 0 0 0-18.353 33.753z" style="fill: rgb(255, 255, 255);"></path></g></g><g class="ldl-layer"><g class="ldl-ani"><g fill="#1a1a1a"><g class="ldl-layer"><g class="ldl-ani" style="transform-origin: 750px 750px;"><path d="M57.162 180.528c-7.942 0-14.867-2.131-20.388-6.441-11.138-8.62-15.3-24.794-11.67-45.472 3.535-20.387 14.188-42.809 29.975-63.245s34.867-36.319 53.705-44.842c19.128-8.669 35.835-8.717 46.973-.1s15.3 24.794 11.671 45.472c-3.535 20.387-14.189 42.809-29.976 63.245-15.787 20.387-34.867 36.319-53.7 44.842-9.641 4.362-18.6 6.541-26.59 6.541zm78.111-163.627c-7.554 0-16.126 2.081-25.327 6.246-18.4 8.33-37.094 23.971-52.591 44.02C25.539 108.275 17.113 155.2 38.566 171.81s64.746-3.341 96.562-44.407c15.5-20.048 25.956-42.034 29.394-61.937 3.39-19.612-.338-34.77-10.6-42.663-5.041-3.97-11.337-5.904-18.649-5.904z" style="fill: rgb(26, 26, 26);"></path></g></g><g class="ldl-layer"><g class="ldl-ani" style="transform-origin: 750px 750px;"><path d="M62.1 166.485a21.712 21.712 0 0 1-13.51-4.213c-8.185-6.344-10.606-19.031-6.829-35.641 3.73-16.272 12.978-34.48 26-51.381 13.075-16.852 28.426-30.411 43.2-38.063 15.158-7.845 27.99-8.668 36.223-2.324s10.6 19.031 6.828 35.642c-3.729 16.271-12.978 34.479-26.005 51.38-13.075 16.852-28.426 30.411-43.2 38.063-8.42 4.31-16.12 6.537-22.707 6.537zm71.575-132.978c-6.1 0-13.366 2.082-21.356 6.247-14.43 7.506-29.443 20.726-42.228 37.24s-21.84 34.382-25.472 50.218c-3.535 15.448-1.5 27.07 5.763 32.687s19.031 4.7 33.075-2.615c14.431-7.506 29.443-20.726 42.228-37.24 12.784-16.561 21.84-34.382 25.472-50.217 3.535-15.448 1.5-27.071-5.763-32.688a18.586 18.586 0 0 0-11.719-3.632z" style="fill: rgb(26, 26, 26);"></path></g></g><g class="ldl-layer"><g class="ldl-ani" style="transform-origin: 750px 750px;"><path d="M146.314 35.975a5.922 5.922 0 0 0-.678-.485c9.2 15.836-.339 49.153-24.019 79.71-26.344 34.044-60.388 52.01-76.707 40.629a18.392 18.392 0 0 0 4.552 5.279c15.981 12.4 50.654-5.569 77.385-40.145s35.448-72.59 19.467-84.988z" style="fill: rgb(26, 26, 26);"></path></g></g><g class="ldl-layer"><g class="ldl-ani" style="transform-origin: 750px 750px;"><path d="M40.6 176.363a1.354 1.354 0 0 1-.726-.194l-31.38-17.481a1.145 1.145 0 0 1-.436-.388C-7.875 137.429.406 94.039 27.72 55.1c12.831-18.3 28.812-33.8 44.89-43.58 16.03-9.782 31.525-13.51 43.632-10.508a.67.67 0 0 1 .29.1L148.2 15.976a1.45 1.45 0 1 1-1.259 2.615L115.418 3.77C91.593-2.04 55.758 20.236 30.14 56.75 17.162 75.2 8.106 95.54 4.62 113.99c-3.39 17.87-1.4 32.882 5.617 42.276L41.375 173.6a1.486 1.486 0 0 1 .581 1.985 1.668 1.668 0 0 1-1.356.778z" style="fill: rgb(26, 26, 26);"></path></g></g><g class="ldl-layer"><g class="ldl-ani" style="transform-origin: 750px 750px;"><path d="M129.317 17.186a1.492 1.492 0 0 1-.63-.145l-13.123-6.247L100.6 3.772a1.446 1.446 0 0 1-.74-.828 1.45 1.45 0 0 1 1.999-1.787l14.964 7.022 13.123 6.247a1.446 1.446 0 0 1 .74.828 1.444 1.444 0 0 1-.062 1.11 1.515 1.515 0 0 1-1.307.822zM111.4 22.513a1.492 1.492 0 0 1-.63-.145l-13.026-6.1-14.965-7.023a1.452 1.452 0 0 1 1.259-2.616L99 13.651l13.027 6.1a1.45 1.45 0 0 1 .677 1.937 1.514 1.514 0 0 1-1.304.825zm-14.141 7.215a1.492 1.492 0 0 1-.63-.146L69.123 16.653a1.453 1.453 0 0 1 .15-2.677 1.452 1.452 0 0 1 1.109.062l27.506 12.93a1.452 1.452 0 0 1 .678 1.937 1.428 1.428 0 0 1-1.307.823zM86.508 37.09a1.49 1.49 0 0 1-.63-.146l-27.167-12.59a1.462 1.462 0 1 1 1.211-2.664L87.09 34.281a1.473 1.473 0 0 1-.58 2.81zm-11.816 9.442a1.676 1.676 0 0 1-.63-.146l-27.07-12.494A1.463 1.463 0 0 1 48.2 31.23l27.07 12.494a1.473 1.473 0 0 1-.58 2.81zm-9.443 8.718a1.492 1.492 0 0 1-.63-.145l-24.891-11.72a1.451 1.451 0 0 1 1.259-2.614l24.89 11.719a1.452 1.452 0 0 1 .679 1.937 1.377 1.377 0 0 1-1.307.823zM56.1 65.662a1.487 1.487 0 0 1-.63-.145L31.109 54.136a1.463 1.463 0 0 1 1.21-2.663l24.359 11.38a1.473 1.473 0 0 1-.581 2.809zm-6.832 9.975a1.486 1.486 0 0 1-.629-.146l-24.31-11.428a1.45 1.45 0 1 1 1.259-2.615L49.9 72.876a1.453 1.453 0 0 1 .678 1.937 1.515 1.515 0 0 1-1.31.824zm-5.762 10.217a1.494 1.494 0 0 1-.63-.146L17.985 74.086a1.466 1.466 0 0 1-.724-1.939 1.464 1.464 0 0 1 1.939-.724l24.887 11.622a1.473 1.473 0 0 1-.581 2.81zm-5.957 10.994a1.484 1.484 0 0 1-.63-.145L12.562 85.08a1.451 1.451 0 0 1 1.259-2.615L38.18 94.087a1.452 1.452 0 0 1 .678 1.937 1.38 1.38 0 0 1-1.308.823zm-4.697 10.894a1.479 1.479 0 0 1-.63-.145L7.864 95.975a1.451 1.451 0 1 1 1.26-2.615l24.357 11.622a1.46 1.46 0 0 1 .74.829 1.445 1.445 0 0 1-.062 1.108 1.422 1.422 0 0 1-1.307.823zm-3.777 10.752a1.494 1.494 0 0 1-.63-.145L4.522 106.968a1.459 1.459 0 0 1-.74-.829 1.446 1.446 0 0 1 .403-1.561 1.453 1.453 0 0 1 1.597-.225L29.7 115.734a1.455 1.455 0 0 1 .82 1.389c-.011.19-.06.376-.142.548a1.375 1.375 0 0 1-1.303.823zm-2.712 11.622a1.508 1.508 0 0 1-.63-.145L1.81 118.591a1.452 1.452 0 0 1 1.259-2.615l23.922 11.38a1.441 1.441 0 0 1 .74.828 1.448 1.448 0 0 1-.062 1.109 1.38 1.38 0 0 1-1.307.823zm-1.114 11.961a1.508 1.508 0 0 1-.63-.145L1.181 130.843a1.46 1.46 0 0 1-.74-.828 1.454 1.454 0 0 1 .89-1.85 1.452 1.452 0 0 1 1.109.063l23.438 11.089a1.441 1.441 0 0 1 .74.828 1.448 1.448 0 0 1-.062 1.109 1.427 1.427 0 0 1-1.307.823zm.436 10.074a1.493 1.493 0 0 1-.63-.145L1.617 140.384a1.453 1.453 0 0 1 1.259-2.616l23.438 11.623a1.442 1.442 0 0 1 .74.828 1.45 1.45 0 0 1-.062 1.109 1.427 1.427 0 0 1-1.307.823zm2.954 10.748a1.686 1.686 0 0 1-.678-.146l-23.584-11.96a1.43 1.43 0 0 1-.782-1.396 1.447 1.447 0 0 1 .5-.982 1.429 1.429 0 0 1 1.05-.34c.188.015.371.066.54.152l23.583 11.961a1.414 1.414 0 0 1 .793 1.396c-.017.19-.073.374-.163.541a1.35 1.35 0 0 1-1.26.774z" style="fill: rgb(26, 26, 26);"></path></g></g></g></g></g></g></g></g></svg></g></g></g></g></g><style id="bounceAlt-005caa09-c23a-463b-a3ca-1e91ec84f570" data-anikit="">@keyframes bounceAlt-005caa09-c23a-463b-a3ca-1e91ec84f570
{
  0% {
    animation-timing-function: cubic-bezier(0.1147,0.3414,0.1216,0.9209);
    transform: translate(0, 0px);
  }
  51% {
    animation-timing-function: cubic-bezier(0.8777,0.1097,0.8812,0.6524);
    transform: translate(0, -30px);
  }
  100% {
    transform: translate(0, 0px);
  }
}</style><!-- [ldio] generated by https://loading.io/ --></svg>